# xmcd
#
# Track frame offsets:
#	150
#	19425
#	36062
#	57530
#	68732
#	93762
#	104737
#	130762
#	150987
#	193897
#
# Disc length: 2894 seconds
#
# Revision: 0
# Processed by: cddbd v1.5.1PL0 Copyright (c) Steve Scherf et al.
# Submitted via: dBpowerAMP V4.0
#
DISCID=860b4c0a
DTITLE=The Blues Revelator - The stars and the drop
DYEAR=2003
DGENRE=Blues
TTITLE0=Don't have time for you
TTITLE1=That ain't right
TTITLE2=What keeps me strong
TTITLE3=Your own sweet way
TTITLE4=Hell to pay
TTITLE5=The fiend of finkle street
TTITLE6=Tomorrow
TTITLE7=Not enough hours in the day
TTITLE8=Death's black train
TTITLE9=The blue's revelator
EXTD=
EXTT0=
EXTT1=
EXTT2=
EXTT3=
EXTT4=
EXTT5=
EXTT6=
EXTT7=
EXTT8=
EXTT9=
PLAYORDER=
